<svg width="34" height="32" viewBox="0 0 34 32" fill="none" xmlns="http://www.w3.org/2000/svg">
<path d="M16.5472 1.88541V4.27864H12.1872V7.0078H9.86734V15.5026H7.80554V12.8151H6.4147V15.5026H3.19025V30.1146H9.86734H11.2609H14.5424H19.7662H24.4412H31.2949V15.5026H27.9781V12.8151H26.5873V15.5026H24.4412V7.0078H21.9448V4.27864H17.938V1.88541H16.5472ZM13.578 5.61197H20.554V7.0078H13.578V5.61197ZM11.2582 8.34374H23.0477V28.7786H19.7662V23.8255H14.5424V28.7786H11.2609V15.5026H11.2581L11.2582 8.34374ZM4.58108 16.8385H9.86734V28.7786H4.58108V16.8385ZM24.4412 16.8385H29.9041V28.7786H24.4412V16.8385ZM15.936 25.1614H18.3726V28.7786H15.936V25.1614Z" fill="#FFCD34"/>
<path d="M13.698 10.2099C13.698 11.5647 13.698 12.9194 13.698 14.2742C15.9433 14.2742 18.1885 14.2742 20.4338 14.2742C20.4338 12.9194 20.4338 11.5647 20.4338 10.2099C18.1885 10.2099 15.9433 10.2099 13.698 10.2099ZM15.0911 11.5455C16.4076 11.5455 17.7242 11.5455 19.0407 11.5455C19.0407 12.0107 19.0407 12.4759 19.0407 12.9411C17.7242 12.9411 16.4076 12.9411 15.0911 12.9411C15.0911 12.4759 15.0911 12.0107 15.0911 11.5455Z" fill="#FFCD34"/>
<path d="M13.698 16.4452C13.698 17.8 13.698 19.1547 13.698 20.5095C15.9433 20.5095 18.1885 20.5095 20.4338 20.5095C20.4338 19.1547 20.4338 17.8 20.4338 16.4452C18.1885 16.4452 15.9433 16.4452 13.698 16.4452ZM15.0911 17.7783C16.4076 17.7783 17.7242 17.7783 19.0407 17.7783C19.0407 18.2435 19.0407 18.7087 19.0407 19.1739C17.7242 19.1739 16.4076 19.1739 15.0911 19.1739C15.0911 18.7087 15.0911 18.2435 15.0911 17.7783Z" fill="#FFCD34"/>
<path d="M5.86133 22.1418C5.86133 22.5861 5.86133 23.0305 5.86133 23.4749C6.77004 23.4749 7.67875 23.4749 8.58746 23.4749C8.58746 23.0305 8.58746 22.5861 8.58746 22.1418C7.67875 22.1418 6.77004 22.1418 5.86133 22.1418Z" fill="#FFCD34"/>
<path d="M5.86133 19.243C5.86133 19.6881 5.86133 20.1333 5.86133 20.5785C6.77004 20.5785 7.67875 20.5785 8.58746 20.5785C8.58746 20.1333 8.58746 19.6881 8.58746 19.243C7.67875 19.243 6.77004 19.243 5.86133 19.243Z" fill="#FFCD34"/>
<path d="M5.86133 25.0381C5.86133 25.4824 5.86133 25.9268 5.86133 26.3712C6.77004 26.3712 7.67875 26.3712 8.58746 26.3712C8.58746 25.9268 8.58746 25.4824 8.58746 25.0381C7.67875 25.0381 6.77004 25.0381 5.86133 25.0381Z" fill="#FFCD34"/>
<path d="M25.8078 22.1418C25.8078 22.5861 25.8078 23.0305 25.8078 23.4749C26.7165 23.4749 27.6252 23.4749 28.5339 23.4749C28.5339 23.0305 28.5339 22.5861 28.5339 22.1418C27.6252 22.1418 26.7165 22.1418 25.8078 22.1418Z" fill="#FFCD34"/>
<path d="M25.8078 19.243C25.8078 19.6881 25.8078 20.1333 25.8078 20.5785C26.7165 20.5785 27.6252 20.5785 28.5339 20.5785C28.5339 20.1333 28.5339 19.6881 28.5339 19.243C27.6252 19.243 26.7165 19.243 25.8078 19.243Z" fill="#FFCD34"/>
<path d="M25.8078 25.0381C25.8078 25.4824 25.8078 25.9268 25.8078 26.3712C26.7165 26.3712 27.6252 26.3712 28.5339 26.3712C28.5339 25.9268 28.5339 25.4824 28.5339 25.0381C27.6252 25.0381 26.7165 25.0381 25.8078 25.0381Z" fill="#FFCD34"/>
</svg>
