<svg width="34" height="32" viewBox="0 0 34 32" fill="none" xmlns="http://www.w3.org/2000/svg">
<path d="M17.1536 16C20.2341 16 22.7314 13.6122 22.7314 10.6667C22.7314 7.72115 20.2341 5.33333 17.1536 5.33333C14.0732 5.33333 11.5759 7.72115 11.5759 10.6667C11.5759 13.6122 14.0732 16 17.1536 16Z" fill="#FFCD34"/>
<path d="M28.309 25.3333V26.6667C28.309 27.0203 28.1621 27.3594 27.9006 27.6095C27.6391 27.8595 27.2844 28 26.9146 28H7.3926C7.02277 28 6.66809 27.8595 6.40659 27.6095C6.14508 27.3594 5.99817 27.0203 5.99817 26.6667V25.3333C5.99817 23.2116 6.87965 21.1768 8.44868 19.6765C10.0177 18.1762 12.1458 17.3333 14.3647 17.3333H19.9425C22.1614 17.3333 24.2895 18.1762 25.8585 19.6765C27.4276 21.1768 28.309 23.2116 28.309 25.3333Z" fill="#FFCD34"/>
</svg>
