<svg width="49" height="49" viewBox="0 0 49 49" fill="none" xmlns="http://www.w3.org/2000/svg">
<path fill-rule="evenodd" clip-rule="evenodd" d="M12.25 36.75V40.8333C12.25 43.0885 10.4218 44.9166 8.16667 44.9166H4.08333C1.82817 44.9166 0 43.0885 0 40.8333L0 8.16665C0 5.91148 1.82817 4.08331 4.08333 4.08331L8.16667 4.08331L44.9167 4.08331C47.1718 4.08331 49 5.91148 49 8.16665V36.75C49 39.0051 47.1718 40.8333 44.9167 40.8333H40.8333C38.5782 40.8333 36.75 39.0051 36.75 36.75V34.7083H30.625L30.625 38.7916C30.625 41.0468 28.7968 42.875 26.5417 42.875H20.4167C18.1615 42.875 16.3333 41.0468 16.3333 38.7916V36.75H12.25ZM4.08333 8.16665L4.08333 40.8333H8.16667V28.5833H12.25V32.6666H16.3333V28.5833H20.4167L20.4167 38.7916H26.5417L26.5417 28.5833H30.625V30.625L36.75 30.625V28.5833H40.8333V36.75H44.9167V8.16665H40.8333L4.08333 8.16665ZM38.7917 12.25V16.3333H10.2083V12.25L38.7917 12.25ZM32.6667 20.4166V24.5L10.2083 24.5V20.4166L32.6667 20.4166Z" fill="#FFCD34"/>
</svg>
