<svg width="50" height="50" viewBox="0 0 50 50" fill="none" xmlns="http://www.w3.org/2000/svg">
<g clip-path="url(#clip0_269_190)">
<path d="M35.4165 41.6667H14.5832V43.75C14.5832 44.3025 14.3637 44.8324 13.973 45.2231C13.5823 45.6138 13.0524 45.8333 12.4998 45.8333H10.4165C9.86397 45.8333 9.33407 45.6138 8.94337 45.2231C8.55266 44.8324 8.33317 44.3025 8.33317 43.75V41.6667H6.24984V25H4.1665V16.6667H6.24984V10.4167C6.24984 9.3116 6.68882 8.25179 7.47023 7.47039C8.25163 6.68899 9.31143 6.25 10.4165 6.25H39.5832C40.6882 6.25 41.748 6.68899 42.5294 7.47039C43.3108 8.25179 43.7498 9.3116 43.7498 10.4167V16.6667H45.8332V25H43.7498V41.6667H41.6665V43.75C41.6665 44.3025 41.447 44.8324 41.0563 45.2231C40.6656 45.6138 40.1357 45.8333 39.5832 45.8333H37.4998C36.9473 45.8333 36.4174 45.6138 36.0267 45.2231C35.636 44.8324 35.4165 44.3025 35.4165 43.75V41.6667ZM10.4165 10.4167V29.1667H39.5832V10.4167H10.4165ZM10.4165 33.3333V37.5H18.7498V33.3333H10.4165ZM31.2498 33.3333V37.5H39.5832V33.3333H31.2498Z" fill="black"/>
</g>
<defs>
<clipPath id="clip0_269_190">
<rect width="50" height="50" fill="white"/>
</clipPath>
</defs>
</svg>
