<svg width="34" height="32" viewBox="0 0 34 32" fill="none" xmlns="http://www.w3.org/2000/svg">
<g clip-path="url(#clip0_182_2160)">
<path d="M26.4591 4H7.08804C5.56603 4 4.32074 5.2 4.32074 6.66667V28H7.08804V30.6667H9.85533V28H23.6918V30.6667H26.4591V28H29.2264V6.66667C29.2264 5.2 27.9811 4 26.4591 4ZM26.4591 25.3333H7.08804V20H26.4591V25.3333ZM26.4591 17.3333H7.08804V10.6667H15.3899V14.6667H18.1572V10.6667H26.4591V17.3333ZM26.4591 8H7.08804V6.66667H26.4591V8ZM0.1698 16H2.9371V9.33333H0.1698V16ZM30.6101 9.33333V16H33.3773V9.33333H30.6101ZM14.0063 21.3333H8.47169V24H14.0063V21.3333ZM25.0755 21.3333H19.5409V24H25.0755V21.3333Z" fill="#FFCD34"/>
</g>
<defs>
<clipPath id="clip0_182_2160">
<rect width="33.2075" height="32" fill="white" transform="translate(0.1698)"/>
</clipPath>
</defs>
</svg>
