<svg width="50" height="50" viewBox="0 0 50 50" fill="none" xmlns="http://www.w3.org/2000/svg">
<path d="M43.7498 20.8334L33.3332 20.8334V6.25002C33.3332 5.69749 33.1137 5.16758 32.723 4.77688C32.3323 4.38618 31.8024 4.16669 31.2498 4.16669L6.24984 4.16669C5.6973 4.16669 5.1674 4.38618 4.7767 4.77688C4.386 5.16758 4.1665 5.69749 4.1665 6.25002L4.1665 43.75C4.1665 44.3026 4.386 44.8325 4.7767 45.2232C5.1674 45.6139 5.6973 45.8334 6.24984 45.8334H31.2498C31.8024 45.8334 32.3323 45.6139 32.723 45.2232C33.1137 44.8325 33.3332 44.3026 33.3332 43.75V41.6667H43.7498C44.3024 41.6667 44.8323 41.4472 45.223 41.0565C45.6137 40.6658 45.8332 40.1359 45.8332 39.5834V22.9167C45.8332 22.3642 45.6137 21.8342 45.223 21.4436C44.8323 21.0528 44.3024 20.8334 43.7498 20.8334ZM41.6665 25V27.0834L33.3332 27.0834V25L41.6665 25ZM29.1665 41.6667H8.33317L8.33317 8.33335L29.1665 8.33335L29.1665 41.6667ZM33.3332 37.5V31.25L41.6665 31.25V37.5H33.3332Z" fill="#FFCD34"/>
<path d="M24.9998 10.4167H12.4998C11.9473 10.4167 11.4174 10.6362 11.0267 11.0269C10.636 11.4176 10.4165 11.9475 10.4165 12.5V22.9167C10.4165 23.4692 10.636 23.9991 11.0267 24.3898C11.4174 24.7805 11.9473 25 12.4998 25H24.9998C25.5524 25 26.0823 24.7805 26.473 24.3898C26.8637 23.9991 27.0832 23.4692 27.0832 22.9167V12.5C27.0832 11.9475 26.8637 11.4176 26.473 11.0269C26.0823 10.6362 25.5524 10.4167 24.9998 10.4167ZM22.9165 20.8334H14.5832V14.5834H22.9165V20.8334Z" fill="#FFCD34"/>
<path d="M16.6667 29.1667H12.5V33.3334H16.6667V29.1667Z" fill="#FFCD34"/>
<path d="M24.9997 29.1667H20.833V33.3334H24.9997V29.1667Z" fill="#FFCD34"/>
<path d="M16.6667 35.4167H12.5V39.5834H16.6667V35.4167Z" fill="#FFCD34"/>
<path d="M24.9997 35.4167H20.833V39.5834H24.9997V35.4167Z" fill="#FFCD34"/>
</svg>
