<svg width="50" height="50" viewBox="0 0 50 50" fill="none" xmlns="http://www.w3.org/2000/svg">
<g clip-path="url(#clip0_269_162)">
<path d="M46.6521 18.4562L44.6292 18.0521C44.387 17.3636 44.1089 16.6884 43.7958 16.0292L44.9375 14.3187C45.4689 13.5161 45.7073 12.5548 45.6124 11.5969C45.5175 10.639 45.0952 9.74318 44.4167 9.06042L40.9375 5.58333C40.2553 4.90462 39.3597 4.48214 38.4021 4.38725C37.4444 4.29236 36.4834 4.53087 35.6813 5.0625L33.9708 6.20417C33.3116 5.89111 32.6364 5.61295 31.9479 5.37083L31.5437 3.35C31.355 2.40544 30.8447 1.55547 30.0999 0.944701C29.355 0.333934 28.4216 0.000100078 27.4583 0L22.5417 0C21.5787 3.68287e-06 20.6455 0.333541 19.9007 0.943896C19.1559 1.55425 18.6455 2.40374 18.4562 3.34792L18.0521 5.37083C17.3636 5.61295 16.6884 5.89111 16.0292 6.20417L14.3187 5.0625C13.5163 4.53071 12.5549 4.29212 11.5969 4.387C10.6389 4.48189 9.74297 4.90445 9.06042 5.58333L5.58333 9.0625C4.90497 9.74492 4.48273 10.6404 4.38785 11.598C4.29297 12.5555 4.53125 13.5165 5.0625 14.3187L6.20417 16.0292C5.89111 16.6884 5.61295 17.3636 5.37083 18.0521L3.35 18.4562C2.40544 18.645 1.55547 19.1553 0.944701 19.9001C0.333934 20.645 0.000100078 21.5784 0 22.5417V27.4583C3.68287e-06 28.4213 0.333541 29.3545 0.943896 30.0993C1.55425 30.8441 2.40374 31.3545 3.34792 31.5437L5.37083 31.9479C5.61295 32.6364 5.89111 33.3116 6.20417 33.9708L5.0625 35.6813C4.53109 36.4839 4.29273 37.4452 4.38761 38.4031C4.48248 39.361 4.9048 40.2568 5.58333 40.9396L9.0625 44.4167C9.74533 45.0943 10.6408 45.5161 11.5981 45.6109C12.5554 45.7058 13.5162 45.468 14.3187 44.9375L16.0292 43.7958C16.6884 44.1089 17.3636 44.387 18.0521 44.6292L18.4562 46.65C18.645 47.5946 19.1553 48.4445 19.9001 49.0553C20.645 49.6661 21.5784 49.9999 22.5417 50H27.4583C28.4213 50 29.3545 49.6665 30.0993 49.0561C30.8441 48.4457 31.3545 47.5963 31.5437 46.6521L31.9479 44.6292C32.6364 44.387 33.3116 44.1089 33.9708 43.7958L35.6813 44.9375C36.4837 45.4693 37.4451 45.7079 38.4031 45.613C39.3611 45.5181 40.257 45.0955 40.9396 44.4167L44.4167 40.9375C45.095 40.2551 45.5173 39.3596 45.6122 38.402C45.707 37.4445 45.4687 36.4835 44.9375 35.6813L43.7958 33.9708C44.1089 33.3116 44.387 32.6364 44.6292 31.9479L46.65 31.5437C47.5946 31.355 48.4445 30.8447 49.0553 30.0999C49.6661 29.355 49.9999 28.4216 50 27.4583V22.5417C50 21.5787 49.6665 20.6455 49.0561 19.9007C48.4457 19.1559 47.5963 18.6455 46.6521 18.4562ZM45.8333 27.4583L42.6083 28.1042C42.2332 28.1794 41.8861 28.3564 41.605 28.6158C41.3238 28.8753 41.1196 29.2071 41.0146 29.575C40.6645 30.7998 40.1752 31.9804 39.5562 33.0938C39.3698 33.4282 39.2792 33.8075 39.2942 34.1901C39.3093 34.5727 39.4295 34.9438 39.6417 35.2625L41.4625 37.9937L37.9833 41.4708L35.2542 39.65C34.9354 39.4378 34.5644 39.3176 34.1818 39.3026C33.7992 39.2875 33.4199 39.3781 33.0854 39.5646C31.9721 40.1836 30.7915 40.6729 29.5667 41.0229C29.1988 41.1279 28.867 41.3322 28.6075 41.6133C28.3481 41.8944 28.171 42.2416 28.0958 42.6167L27.4583 45.8333H22.5417L21.8958 42.6083C21.8206 42.2332 21.6436 41.8861 21.3841 41.605C21.1247 41.3238 20.7929 41.1196 20.425 41.0146C19.2002 40.6645 18.0196 40.1752 16.9062 39.5562C16.5718 39.3698 16.1925 39.2792 15.8099 39.2942C15.4273 39.3093 15.0562 39.4295 14.7375 39.6417L12.0062 41.4625L8.52917 37.9833L10.35 35.2542C10.5622 34.9354 10.6824 34.5644 10.6974 34.1818C10.7125 33.7992 10.6218 33.4199 10.4354 33.0854C9.81643 31.9721 9.32713 30.7915 8.97708 29.5667C8.87208 29.1988 8.66781 28.867 8.38669 28.6075C8.10556 28.3481 7.75842 28.171 7.38333 28.0958L4.16667 27.4583V22.5417L7.39167 21.8958C7.76776 21.8199 8.1156 21.6417 8.39682 21.3807C8.67805 21.1197 8.88173 20.7861 8.98542 20.4167C9.33546 19.1919 9.82477 18.0112 10.4437 16.8979C10.6302 16.5635 10.7208 16.1841 10.7058 15.8015C10.6907 15.4189 10.5705 15.0479 10.3583 14.7292L8.52917 12.0062L12.0083 8.52917L14.7375 10.35C15.0562 10.5622 15.4273 10.6824 15.8099 10.6974C16.1925 10.7125 16.5718 10.6218 16.9062 10.4354C18.0196 9.81643 19.2002 9.32713 20.425 8.97708C20.7929 8.87208 21.1247 8.66781 21.3841 8.38669C21.6436 8.10556 21.8206 7.75842 21.8958 7.38333L22.5417 4.16667H27.4583L28.1042 7.39167C28.1794 7.76675 28.3564 8.11389 28.6158 8.39502C28.8753 8.67615 29.2071 8.88041 29.575 8.98542C30.7998 9.33546 31.9804 9.82477 33.0938 10.4437C33.4282 10.6302 33.8075 10.7208 34.1901 10.7058C34.5727 10.6907 34.9438 10.5705 35.2625 10.3583L37.9937 8.5375L41.4708 12.0167L39.65 14.7458C39.4378 15.0646 39.3176 15.4356 39.3026 15.8182C39.2875 16.2008 39.3781 16.5801 39.5646 16.9146C40.1836 18.0279 40.6729 19.2085 41.0229 20.4333C41.1279 20.8012 41.3322 21.133 41.6133 21.3925C41.8944 21.6519 42.2416 21.829 42.6167 21.9042L45.8333 22.5417V27.4583Z" fill="#FFCD34"/>
<path d="M27.0833 14.5833C27.0833 14.0308 26.8638 13.5009 26.4731 13.1102C26.0824 12.7195 25.5525 12.5 25 12.5C21.6858 12.5033 18.5083 13.8213 16.1648 16.1648C13.8213 18.5083 12.5033 21.6858 12.5 25C12.5 25.5525 12.7195 26.0824 13.1102 26.4731C13.5009 26.8638 14.0308 27.0833 14.5833 27.0833C15.1359 27.0833 15.6658 26.8638 16.0565 26.4731C16.4472 26.0824 16.6667 25.5525 16.6667 25C16.6667 22.7899 17.5446 20.6702 19.1074 19.1074C20.6702 17.5446 22.7899 16.6667 25 16.6667C25.5525 16.6667 26.0824 16.4472 26.4731 16.0565C26.8638 15.6658 27.0833 15.1359 27.0833 14.5833Z" fill="#FFCD34"/>
<path d="M35.4165 22.9166C34.864 22.9166 34.3341 23.1361 33.9434 23.5268C33.5527 23.9175 33.3332 24.4474 33.3332 25C33.3332 27.2101 32.4552 29.3297 30.8924 30.8925C29.3296 32.4553 27.21 33.3333 24.9998 33.3333C24.4473 33.3333 23.9174 33.5528 23.5267 33.9435C23.136 34.3342 22.9165 34.8641 22.9165 35.4166C22.9165 35.9692 23.136 36.4991 23.5267 36.8898C23.9174 37.2805 24.4473 37.5 24.9998 37.5C28.314 37.4966 31.4915 36.1786 33.835 33.8351C36.1785 31.4917 37.4965 28.3141 37.4998 25C37.4998 24.4474 37.2803 23.9175 36.8896 23.5268C36.4989 23.1361 35.969 22.9166 35.4165 22.9166Z" fill="#FFCD34"/>
</g>
<defs>
<clipPath id="clip0_269_162">
<rect width="50" height="50" fill="white"/>
</clipPath>
</defs>
</svg>
