<svg width="34" height="32" viewBox="0 0 34 32" fill="none" xmlns="http://www.w3.org/2000/svg">
<path d="M32.4785 16.548C32.1332 17.43 31.2778 18 30.2983 18H29.5014V29C29.5014 29.552 29.0341 30 28.4583 30H22.1995V23C22.1995 20.243 19.8598 18 16.9839 18C14.108 18 11.7682 20.243 11.7682 23V30H5.50949C4.93368 30 4.46636 29.552 4.46636 29V18H3.66837C2.68887 18 1.83351 17.431 1.48823 16.549C1.14296 15.667 1.39644 14.697 2.13497 14.079L14.3176 3.019C15.8135 1.662 18.1553 1.662 19.6501 3.019L31.862 14.105C32.5692 14.696 32.8238 15.666 32.4785 16.548Z" fill="#FFCD34"/>
</svg>
