<svg width="339" height="95" viewBox="0 0 339 95" fill="none" xmlns="http://www.w3.org/2000/svg">
<path d="M64.8364 31.5875C62.9815 32.1338 61.6596 32.9413 60.5296 34.2475C59.6341 35.2925 58.76 37.145 58.5255 38.5225L58.3762 39.425H60.9347C63.4719 39.425 63.4932 39.425 63.6211 38.8313C63.8343 37.9288 65.0283 36.5513 66.0943 36.0288C67.1817 35.4825 69.3138 35.3875 70.6996 35.815C71.8296 36.1713 73.2581 37.5488 73.5566 38.5938L73.8124 39.425H76.3496C77.7355 39.425 78.8868 39.4013 78.8868 39.3538C78.8868 39.3063 78.7375 38.7125 78.5457 38C77.6715 34.7225 75.3902 32.4663 71.9575 31.4688C70.1666 30.97 66.8192 31.0175 64.8364 31.5875Z" fill="#FFCD34"/>
<path d="M89.2487 31.4925C85.8161 32.4188 82.9591 35.3875 82.3834 38.6413L82.2555 39.425H84.814C87.3085 39.425 87.3725 39.4013 87.5004 38.8788C87.6496 38.1425 88.9715 36.7175 89.9523 36.195C91.061 35.6013 93.4702 35.4825 94.8987 35.9575C95.9221 36.29 96.3912 36.5513 97.713 37.5725C98.0542 37.8338 98.1608 37.7863 98.5659 37.2638C98.8217 36.9075 99.4187 36.1475 99.8664 35.53L100.698 34.4138L100.229 33.8675C99.504 33.0125 97.4572 31.8725 95.9221 31.4688C94.2378 31.0413 90.933 31.0413 89.2487 31.4925Z" fill="#FFCD34"/>
<path d="M202.803 31.5875C200.799 32.1813 199.285 33.0838 198.049 34.4375C197.11 35.4825 196.108 37.43 195.852 38.76L195.725 39.425H198.24H200.778L201.417 38.285C201.844 37.5013 202.398 36.955 203.208 36.4563C204.253 35.815 204.53 35.7438 206.385 35.7438C208.112 35.7438 208.581 35.8388 209.583 36.3613C210.244 36.6938 211.139 37.335 211.566 37.7625L212.355 38.5225L213.613 37.3113C215.617 35.3638 215.595 35.4825 214.423 34.295C213.165 33.0363 210.734 31.6825 209.178 31.35C207.387 30.97 204.53 31.0888 202.803 31.5875Z" fill="#FFCD34"/>
<path d="M293.118 31.4688C288.598 32.7513 285.911 36.48 285.911 41.4438C285.933 46.4075 288.939 50.35 293.459 51.2763C295.101 51.6088 298.064 51.6088 299.663 51.2763C305.1 50.16 308.149 44.9825 306.998 38.9025C306.337 35.435 304.418 33.1075 301.134 31.8013C299.471 31.1363 294.951 30.9463 293.118 31.4688ZM298.96 35.91C299.386 36.0525 300.068 36.48 300.495 36.8363C302.669 38.855 302.797 43.4625 300.708 45.6475C298.96 47.4763 295.442 47.69 293.16 46.1225C290.538 44.3175 290.175 39.1638 292.521 36.955C294.077 35.5063 296.486 35.1263 298.96 35.91Z" fill="#FFCD34"/>
<path d="M32.1304 31.73C32.0451 31.825 31.9811 36.2188 31.9811 41.4913V51.0625H34.433H36.8849V45.6C36.8849 42.37 36.9702 40.1375 37.0768 40.1375C37.1834 40.1375 38.2708 41.3725 39.4647 42.8688L41.6394 45.6H43.2811H44.9442L47.1189 42.8688C48.3128 41.3725 49.3789 40.1375 49.4855 40.1375C49.5921 40.1375 49.6987 42.56 49.72 45.5288L49.784 50.9438H52.2359H54.6877L54.7517 41.8C54.773 36.765 54.7517 32.4188 54.6877 32.11C54.5811 31.5875 54.4959 31.5638 52.4917 31.635L50.4449 31.7063L47.1828 35.9813C44.6243 39.3538 43.8355 40.2563 43.4304 40.2563C43.0253 40.2563 42.1725 39.3063 39.5287 35.9813L36.1174 31.7063L34.1985 31.635C33.1538 31.6113 32.2157 31.635 32.1304 31.73Z" fill="#FFCD34"/>
<path d="M102.425 31.8963C102.361 32.0863 102.34 33.06 102.382 34.105L102.446 35.9813L106.177 36.1L109.909 36.2188L109.972 37.81L110.036 39.425H112.467H114.919V37.7625V36.1L118.607 36.0525L122.275 35.9813V33.8438V31.7063L112.403 31.635C104.28 31.5875 102.532 31.635 102.425 31.8963Z" fill="#FFCD34"/>
<path d="M125.515 31.73C125.43 31.825 125.366 33.6063 125.366 35.6725V39.425H127.925H130.483V37.7388V36.0763L134.406 36.1475L138.35 36.2188L139.011 36.9313C139.416 37.3588 139.715 37.9525 139.8 38.5225L139.928 39.4488L142.167 39.3775L144.427 39.3063L144.363 38.0238C144.235 35.3638 143.233 33.6063 141.186 32.49L139.758 31.7063L132.722 31.635C128.863 31.5875 125.622 31.635 125.515 31.73Z" fill="#FFCD34"/>
<path d="M153.232 32.11C153.062 32.4188 152.529 33.5113 152.017 34.5563C151.527 35.6013 150.78 37.1213 150.375 37.9288L149.629 39.425H152.209H154.789L155.535 37.7625C156.537 35.5538 156.857 35.5538 157.923 37.7625L158.733 39.425H161.249H163.765L162.635 37.0975C162.016 35.8388 161.185 34.105 160.759 33.25L160.012 31.7063L156.772 31.635C153.595 31.5875 153.531 31.5875 153.232 32.11Z" fill="#FFCD34"/>
<path d="M172.208 31.73C172.122 31.825 172.058 33.6063 172.058 35.6725V39.425H174.617H177.175L177.133 35.5538L177.069 31.7063L174.702 31.635C173.423 31.6113 172.293 31.6588 172.208 31.73Z" fill="#FFCD34"/>
<path d="M186.557 35.2688C186.557 37.2875 186.557 39.0213 186.557 39.1163C186.557 39.235 187.708 39.33 189.115 39.3775L191.674 39.4488L191.631 35.5775L191.567 31.7063L189.072 31.635L186.557 31.5638V35.2688Z" fill="#FFCD34"/>
<path d="M223.74 34.485C222.973 36.1 222.077 37.8575 221.8 38.4038L221.267 39.425H223.847H226.426L227.173 37.7388C228.153 35.6013 228.516 35.6013 229.603 37.7625L230.392 39.3063L232.887 39.3775C234.251 39.4013 235.381 39.4013 235.381 39.3538C235.381 39.3063 234.55 37.5725 233.505 35.4825L231.65 31.7063L228.409 31.635L225.19 31.5638L223.74 34.485Z" fill="#FFCD34"/>
<path d="M244.059 31.73C243.973 31.825 243.909 33.6063 243.909 35.6725V39.425H246.361H248.792L248.856 37.81L248.92 36.2188L252.225 36.1475C255.337 36.1 255.572 36.1238 256.02 36.575C256.574 37.145 256.638 38.1425 256.148 38.9025L255.828 39.425H258.066H260.284L260.732 38.6413C262.075 36.2188 261.179 33.4163 258.642 32.1338C258.003 31.8013 256.83 31.7063 251.052 31.635C247.299 31.5875 244.165 31.635 244.059 31.73Z" fill="#FFCD34"/>
<path d="M264.74 31.7538C264.655 31.825 264.591 32.8463 264.591 33.9863V36.1L268.279 36.1475L271.946 36.2188L272.01 37.81L272.074 39.425H274.505H276.935L276.999 37.81L277.063 36.2188L280.752 36.1475L284.44 36.1L284.376 33.8913L284.312 31.7063L274.59 31.635C269.26 31.6113 264.804 31.6588 264.74 31.7538Z" fill="#FFCD34"/>
<path d="M58.4829 43.5338C58.291 43.89 59.0798 46.2413 59.7834 47.3575C61.084 49.4 62.9176 50.6825 65.4121 51.2763C67.0112 51.6563 70.4225 51.585 72.0429 51.1813C74.9851 50.3975 77.373 48.26 78.2685 45.6238C79.0147 43.3913 79.0147 43.3913 77.1812 43.2963C76.307 43.2488 75.177 43.2725 74.6866 43.3675C73.9191 43.4625 73.7272 43.605 73.4287 44.3175C72.6612 46.0988 71.0195 47.025 68.6102 47.025C66.2649 47.025 64.41 45.9325 63.7278 44.1513C63.5998 43.7713 63.4293 43.4388 63.344 43.4388C62.7257 43.2963 58.5681 43.3913 58.4829 43.5338Z" fill="#FFCD34"/>
<path d="M82.3621 43.605C82.3194 43.7475 82.4687 44.4363 82.7245 45.1488C84.0677 49.0913 87.1379 51.2525 91.7006 51.49C95.8368 51.68 98.8004 50.635 101.018 48.1888C101.615 47.5 102.126 46.8588 102.126 46.7638C102.126 46.6688 101.444 45.9325 100.634 45.125L99.1202 43.6288L98.1608 44.7213C96.7962 46.265 95.581 46.8588 93.4915 46.9775C92.5534 47.025 91.4021 46.9538 90.933 46.8113C89.6964 46.455 88.3959 45.4338 87.8202 44.3888C87.3511 43.5338 87.2232 43.4625 86.2425 43.4388C83.5347 43.32 82.4474 43.3675 82.3621 43.605Z" fill="#FFCD34"/>
<path d="M110.122 43.4863C110.058 43.5813 109.972 49.5663 110.015 50.7775C110.015 51.015 110.569 51.0625 112.424 51.015L114.812 50.9438V47.1438V43.3675L112.51 43.3438C111.23 43.3438 110.143 43.415 110.122 43.4863Z" fill="#FFCD34"/>
<path d="M125.622 43.4388C125.43 43.5813 125.366 44.555 125.409 47.2863L125.473 50.9438H127.925H130.376L130.44 48.735L130.504 46.55H134.854C138.692 46.55 139.352 46.5025 140.355 46.075C141.463 45.6 143.382 43.8188 143.169 43.4388C143.02 43.2013 125.984 43.2013 125.622 43.4388Z" fill="#FFCD34"/>
<path d="M147.923 43.5338C147.625 43.7713 144.128 50.6588 144.128 50.9675C144.128 51.015 145.344 51.0388 146.857 51.015L149.565 50.9438L150.205 49.6138C150.567 48.9013 151.058 47.9038 151.313 47.4288L151.782 46.55H156.708H161.633L161.995 47.2863C162.187 47.69 162.699 48.6638 163.104 49.4713L163.85 50.9438L166.579 51.015C168.072 51.0388 169.287 50.9913 169.287 50.8725C169.287 50.5638 165.833 43.605 165.598 43.4388C165.47 43.3438 161.526 43.2725 156.814 43.2488C150.354 43.2488 148.158 43.32 147.923 43.5338Z" fill="#FFCD34"/>
<path d="M172.186 43.3913C172.122 43.4863 172.058 45.2438 172.058 47.31V51.0625H174.617H177.154L177.218 48.8538L177.282 46.6688L181.738 46.5975C185.171 46.55 186.237 46.6213 186.386 46.835C186.471 47.0013 186.557 48.0225 186.557 49.115V51.0863L189.072 51.015L191.567 50.9438V47.1438V43.3438L181.951 43.2963C176.642 43.2725 172.25 43.32 172.186 43.3913Z" fill="#FFCD34"/>
<path d="M195.938 43.9138C195.938 44.8875 197.217 47.4525 198.283 48.545C200.266 50.6113 202.718 51.5375 206.278 51.5375C209.903 51.5375 212.589 50.4925 214.487 48.3313C215.553 47.12 215.574 47.2388 213.613 45.3388L212.355 44.1275L211.31 45.1725C210.031 46.4788 208.581 47.025 206.513 47.025C203.997 47.025 202.206 46.0275 201.012 43.9375C200.692 43.3675 200.607 43.3438 198.304 43.3438C195.959 43.3438 195.938 43.3438 195.938 43.9138Z" fill="#FFCD34"/>
<path d="M219.54 43.5338C219.135 43.9138 215.787 50.7775 215.937 50.9438C216.001 51.015 217.173 51.0625 218.538 51.0625C220.286 51.0625 221.118 50.9675 221.267 50.7538C221.373 50.6113 221.821 49.7088 222.269 48.8063C222.717 47.88 223.164 47.0013 223.292 46.835C223.442 46.6213 224.635 46.55 228.409 46.5975L233.334 46.6688L234.422 48.8063L235.488 50.9438L238.217 51.015C240.029 51.0625 240.925 50.9913 240.925 50.825C240.925 50.6825 240.498 49.7563 239.986 48.735C239.475 47.7375 238.771 46.2413 238.409 45.4575C238.046 44.65 237.598 43.8425 237.428 43.6525C237.172 43.3438 235.765 43.2963 228.473 43.2725C222.269 43.2725 219.753 43.3438 219.54 43.5338Z" fill="#FFCD34"/>
<path d="M244.123 43.415C243.995 43.4625 243.909 44.9825 243.909 47.2863V51.0863L252.182 51.015C261.307 50.9438 261.35 50.92 262.842 49.3288C264.207 47.8563 264.313 44.935 263.034 43.7475C262.885 43.605 261.947 43.4388 260.945 43.415C259.431 43.3438 259.175 43.3913 259.239 43.7C259.58 45.0538 259.495 45.5288 258.919 46.0513C258.365 46.55 258.173 46.55 253.632 46.5025L248.92 46.4313L248.813 44.9113L248.707 43.3913L246.511 43.3675C245.317 43.3438 244.229 43.3675 244.123 43.415Z" fill="#FFCD34"/>
<path d="M272.181 43.3913C272.117 43.4863 272.053 45.2438 272.053 47.31V51.0625H274.505H276.957L276.914 47.1913L276.85 43.3438L274.59 43.2963C273.332 43.2725 272.245 43.32 272.181 43.3913Z" fill="#FFCD34"/>
<path d="M65.54 64.3388C65.4974 64.3863 65.4547 65.8113 65.4547 67.4975V70.5375H68.0132C70.4224 70.5375 70.5717 70.5138 70.5717 70.0625C70.5717 69.635 70.4011 69.5875 68.5036 69.54C66.4355 69.4688 66.4141 69.4688 66.3928 68.875C66.3289 67.8775 66.67 67.6638 68.2051 67.6875C70.124 67.735 70.1453 67.735 70.1453 67.3313C70.1453 67.07 69.7615 66.975 68.4183 66.9275C67.0324 66.88 66.6274 66.7613 66.4355 66.4288C66.2649 66.1438 66.2649 65.9063 66.4355 65.5975C66.6274 65.2888 67.0324 65.17 68.3543 65.1225C70.2306 65.0513 70.7423 64.9325 70.4438 64.6C70.2519 64.41 65.7106 64.1488 65.54 64.3388Z" fill="#FFCD34"/>
<path d="M78.7802 64.3625C78.567 64.7425 79.7183 67.9013 80.1661 68.1625C80.3793 68.305 80.9549 68.4 81.424 68.4C82.9804 68.4 82.7459 69.5163 81.1681 69.635C80.5285 69.6825 80.2514 69.825 80.2087 70.11C80.1021 70.7513 82.1276 70.7275 82.7032 70.0863C83.3002 69.4213 84.7074 64.5525 84.3876 64.315C84.0038 64.0775 83.748 64.4338 83.2576 65.9775L82.8312 67.3313H81.6798H80.5498L80.1234 66.025C79.5264 64.22 79.1214 63.745 78.7802 64.3625Z" fill="#FFCD34"/>
<path d="M107.798 64.2913C107.734 64.3863 107.67 65.8113 107.67 67.4975C107.67 70.3475 107.691 70.5375 108.096 70.5375C108.437 70.5375 108.501 70.3475 108.565 69.16L108.629 67.8063H110.441H112.254L112.318 69.16C112.382 70.3475 112.446 70.5375 112.787 70.5375C113.192 70.5375 113.213 70.3475 113.213 67.4975C113.213 65.8113 113.149 64.3863 113.085 64.2913C113.021 64.22 112.829 64.22 112.659 64.2913C112.467 64.3625 112.36 64.79 112.36 65.5738V66.7375H110.441H108.523V65.5738C108.523 64.79 108.416 64.3625 108.224 64.2913C108.054 64.22 107.862 64.22 107.798 64.2913Z" fill="#FFCD34"/>
<path d="M115.175 64.315C114.983 64.4813 114.919 65.265 114.962 67.4738L115.026 70.4188L116.816 70.49C118.885 70.5613 119.588 70.3238 120.1 69.3738C120.526 68.5663 120.548 67.9488 120.206 67.0938C119.844 66.1913 118.97 65.7875 117.392 65.7875H116.006L115.942 65.0275C115.878 64.2438 115.622 64.0063 115.175 64.315ZM119.055 67.1175C119.503 67.5925 119.482 68.6138 119.034 69.16C118.778 69.4925 118.373 69.5875 117.328 69.5875H115.985V68.1625V66.7375H117.349C118.309 66.7375 118.821 66.8563 119.055 67.1175Z" fill="#FFCD34"/>
<path d="M121.315 64.4813C121.166 64.6713 121.102 65.7875 121.145 67.5925C121.209 70.2288 121.23 70.4188 121.635 70.4188C122.04 70.4188 122.061 70.2288 122.125 67.4263C122.168 64.9563 122.125 64.3863 121.869 64.2913C121.699 64.22 121.443 64.2913 121.315 64.4813Z" fill="#FFCD34"/>
<path d="M126.176 64.315L123.874 64.3863V67.45V70.5375H126.432C128.841 70.5375 128.991 70.5138 128.991 70.0625C128.991 69.635 128.82 69.5875 126.922 69.54L124.833 69.4688L124.769 68.78C124.662 67.8538 124.982 67.6875 126.795 67.6875C128.266 67.6875 128.863 67.45 128.308 67.07C128.18 66.975 127.498 66.9275 126.816 66.9513C125.217 67.0225 124.726 66.8325 124.726 66.1675C124.726 65.265 125.132 65.075 127.008 65.075C128.415 65.075 128.777 65.0038 128.777 64.7425C128.777 64.2438 128.713 64.2438 126.176 64.315Z" fill="#FFCD34"/>
<path d="M134.427 64.315C134.363 64.3863 134.321 65.8113 134.321 67.4975C134.321 70.3713 134.342 70.5375 134.747 70.5375C135.152 70.5375 135.174 70.3713 135.174 68.2813C135.174 66.9275 135.259 66.025 135.387 66.025C135.515 66.025 136.048 67.0463 136.623 68.2813C137.924 71.25 138.116 71.2263 139.502 68.0675C140.056 66.785 140.589 65.7875 140.653 65.8825C140.717 65.9538 140.802 66.9988 140.802 68.21C140.824 70.3 140.845 70.4188 141.314 70.49C141.783 70.5613 141.783 70.5613 141.783 67.4738V64.3625H141.037C140.312 64.3625 140.269 64.41 139.225 66.7375C138.628 68.0438 138.116 69.1125 138.052 69.1125C137.988 69.1125 137.476 68.0438 136.879 66.7375C136.282 65.4313 135.728 64.3625 135.643 64.3388C135.557 64.3388 135.28 64.2913 135.003 64.2675C134.747 64.22 134.491 64.2675 134.427 64.315Z" fill="#FFCD34"/>
<path d="M158.84 64.4813C158.69 64.6713 158.626 65.7875 158.669 67.5925L158.733 70.4188L162.741 70.49L166.75 70.5375L166.686 67.4025C166.622 64.79 166.558 64.2438 166.302 64.2438C166.046 64.2438 165.961 64.7425 165.875 66.8563L165.769 69.4688H164.49H163.21L163.104 66.8563C163.04 65.4075 162.933 64.2675 162.848 64.2913C162.741 64.3388 162.592 64.3625 162.464 64.3625C162.336 64.3625 162.251 65.3838 162.251 66.975V69.5875H160.972H159.692V66.9988C159.692 64.98 159.628 64.3863 159.394 64.2913C159.223 64.22 158.968 64.2913 158.84 64.4813Z" fill="#FFCD34"/>
<path d="M175.321 64.2913C175.001 64.4338 175.79 67.1413 176.387 67.8538C176.728 68.2813 177.048 68.4 177.858 68.4C178.561 68.4 178.881 68.495 178.881 68.7088C178.881 69.255 178.391 69.5875 177.581 69.5875C176.856 69.5875 176.365 70.0388 176.685 70.395C176.941 70.68 178.583 70.5375 179.03 70.1813C179.521 69.8013 181.141 64.79 180.907 64.3863C180.629 63.8638 180.16 64.4813 179.734 65.93L179.265 67.45H178.242C177.069 67.45 176.941 67.3075 176.408 65.6213C176.003 64.3625 175.79 64.1013 175.321 64.2913Z" fill="#FFCD34"/>
<path d="M189.883 64.2913C189.819 64.3863 189.755 65.8113 189.755 67.4975V70.5375H191.567C194.211 70.5375 195.085 69.92 195.085 68.0675C195.085 67.545 194.914 66.9988 194.573 66.595C194.126 66.0013 193.891 65.93 192.399 65.8113C190.778 65.6688 190.714 65.645 190.65 65.0275C190.586 64.4338 190.139 64.0063 189.883 64.2913ZM193.806 67.2125C194.36 67.83 194.339 68.495 193.763 69.1125C193.358 69.5163 193.059 69.5875 191.993 69.54L190.714 69.4688L190.65 68.4238C190.544 66.8563 190.629 66.7375 192.1 66.7375C193.102 66.7375 193.465 66.8325 193.806 67.2125Z" fill="#FFCD34"/>
<path d="M196.087 64.2675C196.002 64.3625 195.938 65.8113 195.938 67.4975C195.938 70.395 195.959 70.5375 196.364 70.5375C196.791 70.5375 196.791 70.4188 196.748 67.4025C196.684 64.505 196.535 63.7688 196.087 64.2675Z" fill="#FFCD34"/>
<path d="M204.786 64.3625L202.227 64.4813V67.45C202.227 70.2525 202.249 70.4188 202.654 70.4188C203.038 70.4188 203.08 70.2288 203.187 67.8063L203.293 65.1938L204.743 65.1225C205.639 65.075 206.321 65.17 206.513 65.3363C206.726 65.5263 206.811 66.2388 206.811 68.0675C206.811 70.3713 206.833 70.5375 207.238 70.5375C207.643 70.5375 207.664 70.3713 207.664 67.4738C207.664 65.7638 207.6 64.3625 207.515 64.315C207.408 64.2675 206.193 64.2913 204.786 64.3625Z" fill="#FFCD34"/>
<path d="M210.926 64.4813C208.965 65.4313 208.837 68.9463 210.713 70.1813C211.545 70.7275 213.421 70.7513 214.167 70.205C215.468 69.255 215.894 67.3313 215.169 65.8113C214.444 64.2913 212.525 63.6975 210.926 64.4813ZM213.655 65.3125C214.274 65.6925 214.764 66.9275 214.615 67.7588C214.316 69.3975 212.824 70.205 211.438 69.4688C209.391 68.4 210.073 65.075 212.355 65.075C212.845 65.075 213.421 65.1938 213.655 65.3125Z" fill="#FFCD34"/>
<path d="M231.373 64.315C231.245 64.3625 230.691 65.4075 230.136 66.6425C229.582 67.8775 229.049 68.9463 228.964 69.0175C228.857 69.0888 228.303 68.0675 227.706 66.7375C226.661 64.41 226.618 64.3625 225.893 64.3625H225.147V67.45C225.147 70.3713 225.168 70.5375 225.574 70.5375C225.979 70.5375 226 70.3713 226 68.2813C226 66.9275 226.085 66.025 226.213 66.025C226.341 66.025 226.874 67.0463 227.45 68.2813C228.75 71.25 228.942 71.2263 230.328 68.115C230.904 66.8325 231.458 65.8588 231.565 65.93C231.671 66.0013 231.757 67.07 231.757 68.305C231.757 70.3713 231.778 70.5375 232.183 70.5375C232.588 70.5375 232.609 70.3713 232.609 67.4738C232.609 64.4813 232.609 64.41 232.119 64.315C231.863 64.2675 231.522 64.2438 231.373 64.315Z" fill="#FFCD34"/>
<path d="M235.829 64.5525C234.805 65.1225 234.294 66.0013 234.272 67.165C234.251 69.3025 235.424 70.6325 237.279 70.6325C239.752 70.6325 241.18 68.2813 240.157 65.8825C239.517 64.3625 237.321 63.6975 235.829 64.5525ZM238.686 65.455C239.283 65.9063 239.731 67.2125 239.539 67.9725C239.112 69.4925 237.556 70.2288 236.341 69.4688C234.358 68.305 235.061 65.075 237.3 65.075C237.769 65.075 238.409 65.2413 238.686 65.455Z" fill="#FFCD34"/>
<path d="M243.504 64.5525C241.585 65.7163 241.522 68.8513 243.376 70.205C244.485 71.0125 247.321 70.5138 247.683 69.4213C247.896 68.78 247.299 68.6375 246.638 69.1838C245.338 70.2525 243.312 69.5875 242.95 67.9963C242.779 67.165 243.185 65.9063 243.803 65.455C244.549 64.9088 245.871 64.98 246.553 65.5738C247.129 66.0725 247.854 66.025 247.705 65.5025C247.342 64.3388 244.784 63.745 243.504 64.5525Z" fill="#FFCD34"/>
<path d="M249.73 64.2913C249.517 64.3625 249.453 65.2413 249.453 67.4738C249.453 70.3475 249.474 70.5375 249.879 70.5375C250.22 70.5375 250.284 70.3475 250.348 69.16L250.412 67.8063H251.478C252.523 67.8063 252.544 67.8063 253.355 69.16C253.866 70.0625 254.293 70.5375 254.57 70.5375C255.188 70.5375 255.103 70.205 254.143 68.6375L253.291 67.2125L254.058 65.93C255.316 63.8163 254.527 63.5075 253.184 65.5975C252.438 66.7375 252.395 66.7613 251.414 66.69L250.412 66.6188L250.348 65.55C250.263 64.3863 250.135 64.125 249.73 64.2913Z" fill="#FFCD34"/>
<path d="M257.789 64.5525C254.911 66.1675 255.977 70.6325 259.239 70.6325C261.073 70.6088 262.224 69.5163 262.395 67.6163C262.629 65.075 259.964 63.2938 257.789 64.5525ZM260.817 65.74C261.968 67.07 261.371 69.3975 259.772 69.73C258.898 69.8963 257.896 69.4925 257.448 68.78C257.278 68.5188 257.128 67.8538 257.128 67.3075C257.128 66.4763 257.235 66.1913 257.789 65.6925C258.727 64.8138 260.028 64.8375 260.817 65.74Z" fill="#FFCD34"/>
<path d="M271.477 64.2913C271.264 64.3625 271.2 65.2413 271.2 67.4738V70.5375H273.247C275.294 70.5375 275.294 70.5375 276.019 69.73C276.786 68.875 276.914 68.1388 276.488 67.0938C276.125 66.1913 275.251 65.7875 273.652 65.7875C272.33 65.7875 272.266 65.7638 272.266 65.2175C272.266 64.6 271.861 64.125 271.477 64.2913ZM275.336 67.1175C275.784 67.5925 275.763 68.6138 275.315 69.16C275.059 69.4925 274.654 69.5875 273.609 69.5875H272.266V68.1625V66.7375H273.631C274.59 66.7375 275.102 66.8563 275.336 67.1175Z" fill="#FFCD34"/>
<path d="M58.4189 67.45C58.4189 70.3713 58.4402 70.5375 58.8453 70.5375C59.1864 70.5375 59.2717 70.3713 59.2717 69.825V69.1125H60.6789C63.0668 69.1125 64.1968 68.0675 63.877 66.1675C63.6211 64.7188 62.9602 64.3625 60.5296 64.3625H58.4189V67.45ZM62.5764 65.55C62.747 65.7163 62.8962 66.215 62.8962 66.6425C62.8962 67.7825 62.2353 68.21 60.6149 68.115L59.3783 68.0438L59.3144 66.7613C59.2717 65.9063 59.3357 65.4075 59.5276 65.265C59.9113 64.98 62.1927 65.1938 62.5764 65.55Z" fill="#FFCD34"/>
<path d="M72.2773 67.45C72.2773 70.3713 72.2987 70.5375 72.7038 70.5375C73.1089 70.5375 73.1302 70.3713 73.1302 68.0913C73.1302 66.5 73.2155 65.55 73.386 65.36C73.5566 65.17 74.3455 65.075 75.5181 65.075C77.0532 65.075 77.3943 65.0038 77.3943 64.7188C77.3943 64.41 76.9679 64.3625 74.8358 64.3625H72.2773V67.45Z" fill="#FFCD34"/>
<path d="M87.0313 65.4788C86.9034 66.12 86.7328 67.1413 86.6689 67.7588C86.4983 68.9225 86.1145 69.5875 85.5815 69.5875C85.4109 69.5875 85.283 69.8013 85.283 70.0625C85.283 70.395 85.4323 70.5375 85.7947 70.5375C86.7542 70.5375 87.1806 69.8488 87.5643 67.6875C87.7562 66.5713 88.0121 65.5263 88.1187 65.36C88.2679 65.17 88.7157 65.075 89.4192 65.1225L90.5066 65.1938L90.6132 67.8063C90.7198 70.3 90.7411 70.4188 91.2102 70.49C91.6792 70.5613 91.6792 70.5613 91.6792 67.4738V64.3625H89.4619H87.2445L87.0313 65.4788Z" fill="#FFCD34"/>
<path d="M93.79 65.0513C92.9158 66.0488 93.0011 67.735 93.9819 68.5425C94.2377 68.7563 94.2377 68.8988 93.9392 69.54C93.5128 70.4663 93.5128 70.5375 94.0032 70.5375C94.2377 70.5375 94.6002 70.2288 94.8134 69.825C95.1758 69.1125 95.2398 69.0888 96.4764 69.16C97.6917 69.2313 97.7556 69.255 97.8196 69.8725C97.8623 70.3475 98.0115 70.5375 98.31 70.5375C98.6938 70.5375 98.7151 70.3475 98.7151 67.45V64.3625H96.5617C94.4723 64.3625 94.4083 64.3863 93.79 65.0513ZM97.6064 65.36C97.7556 65.5263 97.8623 66.1438 97.8623 66.7613C97.8623 67.9963 97.6917 68.1625 96.3698 68.1625C94.6002 68.1625 93.6194 67.1175 94.3017 65.93C94.4936 65.6213 94.8773 65.2888 95.1332 65.2413C96.1353 65.0275 97.3506 65.075 97.6064 65.36Z" fill="#FFCD34"/>
<path d="M100.421 67.4738C100.421 70.5375 100.421 70.5613 100.89 70.49C101.252 70.4425 101.38 70.2525 101.38 69.825C101.38 69.255 101.444 69.2313 103.001 69.1125C104.898 68.9463 105.666 68.495 105.922 67.3788C106.156 66.3338 106.007 65.6688 105.389 64.9563C104.877 64.3863 104.706 64.3625 102.638 64.3625H100.421V67.4738ZM104.557 65.5738C105.239 66.1675 105.282 67.0225 104.642 67.6875C104.28 68.0438 103.896 68.1625 102.958 68.1625C102.254 68.1625 101.657 68.0438 101.551 67.8538C101.338 67.5688 101.359 66.0013 101.572 65.3838C101.764 64.8613 103.896 64.98 104.557 65.5738Z" fill="#FFCD34"/>
<path d="M144.597 67.165C144 68.7325 143.489 70.11 143.489 70.2763C143.489 70.7275 144.214 70.5613 144.512 70.0625C144.747 69.635 145.002 69.5875 146.772 69.5875C148.606 69.5875 148.798 69.635 148.926 70.0625C149.053 70.5375 149.885 70.7513 149.885 70.3C149.885 70.1575 149.416 68.8038 148.84 67.26L147.774 64.4813L146.751 64.41L145.727 64.3388L144.597 67.165ZM147.049 65.36C147.412 65.9063 148.179 68.21 148.051 68.4238C147.902 68.7088 145.472 68.7088 145.301 68.4C145.152 68.115 146.367 65.075 146.644 65.075C146.751 65.075 146.943 65.2175 147.049 65.36Z" fill="#FFCD34"/>
<path d="M151.591 67.45C151.591 70.3475 151.612 70.5375 151.996 70.5375C152.294 70.5375 152.443 70.3475 152.486 69.8725C152.55 69.255 152.593 69.2313 154.149 69.0888C156.494 68.8988 157.134 68.3763 157.134 66.6425C157.134 66.0963 156.942 65.5738 156.58 65.0988C156.025 64.3625 156.025 64.3625 153.808 64.3625H151.591V67.45ZM155.855 65.6688C156.43 66.2388 156.388 66.9988 155.769 67.6638C155.343 68.115 155.066 68.1863 153.915 68.115L152.55 68.0438L152.486 66.9038C152.401 65.2888 152.657 65.0038 154.192 65.1225C154.981 65.1938 155.556 65.3838 155.855 65.6688Z" fill="#FFCD34"/>
<path d="M168.477 67.3788C168.541 70.2288 168.562 70.4188 168.967 70.4188C169.265 70.4188 169.415 70.2288 169.457 69.7538C169.521 69.1363 169.564 69.1125 170.801 69.1125C172.25 69.1125 173.402 68.6613 173.743 67.9725C173.871 67.6875 173.977 67.07 173.977 66.5713C173.956 64.8375 173.21 64.3625 170.459 64.3625H168.413L168.477 67.3788ZM172.698 65.6688C173.252 66.215 173.252 67.07 172.698 67.6875C172.357 68.0675 171.995 68.1625 170.886 68.1625H169.5V66.785C169.5 66.025 169.564 65.3125 169.671 65.2175C169.969 64.8613 172.229 65.1938 172.698 65.6688Z" fill="#FFCD34"/>
<path d="M182.442 64.5288C182.101 64.9088 182.378 65.0513 183.529 65.1225L184.744 65.1938L184.808 67.8538C184.851 70.3475 184.894 70.5375 185.277 70.5375C185.682 70.5375 185.704 70.3713 185.704 67.9488C185.704 65.0513 185.682 65.075 187.324 65.075C188.006 65.075 188.262 64.98 188.262 64.7188C188.262 64.41 187.815 64.3625 185.427 64.3625C183.849 64.3625 182.506 64.4338 182.442 64.5288Z" fill="#FFCD34"/>
<path d="M218.346 65.5975C217.664 69.16 217.6 69.4213 217.216 69.54C216.917 69.6113 216.832 69.8725 216.832 70.68C216.832 71.5588 216.896 71.725 217.237 71.725C217.514 71.725 217.685 71.535 217.728 71.1788C217.792 70.68 217.877 70.6563 220.307 70.585L222.802 70.5138V71.1313C222.802 71.5588 222.909 71.725 223.228 71.725C223.591 71.725 223.655 71.5588 223.655 70.6563C223.655 69.8725 223.569 69.5875 223.335 69.5875C223.079 69.5875 223.015 69.1363 223.015 66.975V64.3625H220.798H218.58L218.346 65.5975ZM221.906 67.3788L221.97 69.5875H220.35C218.516 69.5875 218.538 69.6588 218.985 67.07C219.327 65.1938 219.455 65.0275 220.755 65.1225L221.842 65.1938L221.906 67.3788Z" fill="#FFCD34"/>
<path d="M264.036 64.6713C263.994 64.8375 263.972 66.215 263.994 67.7113L264.058 70.4188L265.976 70.49C267.042 70.5375 268.109 70.49 268.386 70.4188C269.537 70.11 270.091 68.5663 269.388 67.545C269.196 67.26 269.132 66.8088 269.196 66.31C269.281 65.8113 269.217 65.3363 268.983 64.9563C268.642 64.3863 268.535 64.3625 266.382 64.3625C264.74 64.3625 264.122 64.4338 264.036 64.6713ZM268.13 65.4075C268.45 65.6925 268.492 65.835 268.3 66.1913C268.109 66.5238 267.746 66.6425 266.531 66.69L265.017 66.7613V66.0725C265.017 65.6925 265.081 65.3125 265.166 65.2413C265.422 64.9325 267.703 65.075 268.13 65.4075ZM268.514 68.0675C268.919 68.495 268.919 68.5425 268.642 69.1363C268.45 69.5163 268.172 69.5875 266.723 69.5875H265.017V68.6375V67.6875H266.595C267.746 67.6875 268.279 67.7825 268.514 68.0675Z" fill="#FFCD34"/>
<path d="M278.641 65.0513C277.767 66.0488 277.852 67.735 278.833 68.5425C279.089 68.7563 279.089 68.8988 278.79 69.54C278.364 70.4663 278.364 70.5375 278.876 70.5375C279.131 70.5375 279.43 70.2525 279.622 69.825C279.942 69.1363 280.006 69.1125 281.327 69.1125H282.713V69.825C282.713 70.3713 282.799 70.5375 283.14 70.5375C283.545 70.5375 283.566 70.3713 283.566 67.45V64.3625H281.413C279.323 64.3625 279.259 64.3863 278.641 65.0513ZM282.457 65.36C282.841 65.7875 282.777 67.8538 282.372 68.02C281.86 68.2338 280.453 68.1863 279.856 67.925C278.705 67.45 278.684 65.8113 279.792 65.3125C280.496 65.0038 282.159 65.0275 282.457 65.36Z" fill="#FFCD34"/>
</svg>
