<svg width="50" height="50" viewBox="0 0 50 50" fill="none" xmlns="http://www.w3.org/2000/svg">
<path fill-rule="evenodd" clip-rule="evenodd" d="M10.4169 8.60846C9.86537 8.60846 9.35949 8.82876 9.00494 9.18331C8.65456 9.5337 8.48235 9.98029 8.48235 10.4166L8.48235 38.2705L13.0492 33.7037C13.4637 33.2892 14.0128 33.0581 14.5835 33.0581H39.5835C40.1351 33.0581 40.6409 32.8378 40.9955 32.4833C41.3459 32.1329 41.5181 31.6863 41.5181 31.25V10.4166C41.5181 9.98029 41.3459 9.5337 40.9955 9.18331C40.6409 8.82876 40.1351 8.60846 39.5835 8.60846L10.4169 8.60846ZM5.93626 5.7574C7.14451 4.54915 8.75825 3.89148 10.4169 3.89148L39.5835 3.89148C41.2422 3.89148 42.8559 4.54915 44.0642 5.7574C45.2766 6.96982 45.9824 8.64284 45.9824 10.4166V31.25C45.9824 33.0238 45.2766 34.6968 44.0642 35.9092C42.8559 37.1175 41.2422 37.7751 39.5835 37.7751H15.4724L7.78455 45.4629C7.13695 46.1105 6.18672 46.2888 5.36771 45.9163C4.54871 45.5438 4.01807 44.6921 4.01807 43.75L4.01807 10.4166C4.01807 8.64285 4.72384 6.96982 5.93626 5.7574Z" fill="#FFCD34"/>
</svg>
