<svg width="34" height="32" viewBox="0 0 34 32" fill="none" xmlns="http://www.w3.org/2000/svg">
<g clip-path="url(#clip0_30_854)">
<path d="M11.2548 9C10.5364 9 9.83418 8.79473 9.23688 8.41015C8.63959 8.02556 8.17406 7.47894 7.89916 6.83939C7.62425 6.19985 7.55233 5.49612 7.69247 4.81719C7.83262 4.13825 8.17854 3.51461 8.68649 3.02513C9.19445 2.53564 9.84162 2.2023 10.5462 2.06725C11.2507 1.9322 11.981 2.00152 12.6447 2.26642C13.3084 2.53133 13.8756 2.97993 14.2747 3.55551C14.6738 4.13108 14.8868 4.80777 14.8868 5.5C14.8857 6.42792 14.5026 7.31751 13.8217 7.97365C13.1409 8.62978 12.2177 8.99889 11.2548 9ZM11.2548 4C10.9469 4 10.6459 4.08798 10.39 4.2528C10.134 4.41762 9.93446 4.65189 9.81664 4.92598C9.69883 5.20007 9.668 5.50167 9.72806 5.79264C9.78813 6.08361 9.93638 6.35088 10.1541 6.56066C10.3718 6.77044 10.6491 6.9133 10.9511 6.97118C11.253 7.02906 11.566 6.99935 11.8504 6.88582C12.1349 6.77229 12.378 6.58003 12.549 6.33336C12.7201 6.08668 12.8114 5.79667 12.8114 5.5C12.8109 5.10232 12.6467 4.72105 12.3549 4.43984C12.0631 4.15863 11.6675 4.00045 11.2548 4Z" fill="#FFCD34"/>
<path d="M23.6805 31.313L20.4284 24H13.0589C12.1442 23.999 11.2553 23.7074 10.53 23.1703C9.80471 22.6333 9.28338 21.8808 9.04678 21.0293L7.35133 14.9033C7.08089 13.9061 7.2312 12.8463 7.76938 11.9557C8.30756 11.065 9.18983 10.4159 10.2233 10.1503C11.2567 9.88477 12.3572 10.0243 13.2842 10.5385C14.2111 11.0526 14.8891 11.8996 15.1698 12.8941L16.0292 16H22.151V18H14.4341L13.1653 13.4092C13.0222 12.9315 12.6905 12.527 12.2414 12.2823C11.7922 12.0376 11.2615 11.9723 10.763 12.1005C10.2644 12.2286 9.83791 12.5399 9.57486 12.9676C9.31181 13.3953 9.23321 13.9053 9.35593 14.3882L11.0514 20.5137C11.1698 20.9397 11.4307 21.3162 11.7936 21.5849C12.1565 21.8536 12.6012 21.9995 13.0589 22H21.7966L25.5888 30.5254L23.6805 31.313Z" fill="#FFCD34"/>
<path d="M19.0378 28H8.41926C7.96201 27.9996 7.51766 27.8539 7.15508 27.5854C6.7925 27.317 6.53192 26.9408 6.41373 26.5151L2.46826 12.2576L4.47379 11.7424L8.41926 26H19.0378V28Z" fill="#FFCD34"/>
</g>
<defs>
<clipPath id="clip0_30_854">
<rect width="33.2075" height="32" fill="white" transform="translate(0.358521)"/>
</clipPath>
</defs>
</svg>
