<svg width="34" height="32" viewBox="0 0 34 32" fill="none" xmlns="http://www.w3.org/2000/svg">
<path d="M22.2426 30C20.5921 30 18.9787 29.5308 17.6064 28.6518C16.234 27.7727 15.1644 26.5233 14.5328 25.0615C13.9012 23.5997 13.7359 21.9911 14.0579 20.4393C14.3799 18.8874 15.1747 17.462 16.3418 16.3431C17.5089 15.2243 18.9958 14.4624 20.6146 14.1537C22.2333 13.845 23.9112 14.0035 25.4361 14.609C26.961 15.2145 28.2643 16.2398 29.1812 17.5554C30.0982 18.871 30.5876 20.4178 30.5876 22C30.5876 24.1217 29.7084 26.1566 28.1434 27.6569C26.5784 29.1571 24.4558 30 22.2426 30ZM22.2426 16C21.0047 16 19.7947 16.3519 18.7654 17.0112C17.7362 17.6705 16.934 18.6075 16.4603 19.7039C15.9865 20.8003 15.8626 22.0067 16.1041 23.1705C16.3456 24.3344 16.9417 25.4035 17.817 26.2426C18.6923 27.0818 19.8075 27.6532 21.0216 27.8847C22.2357 28.1162 23.4941 27.9974 24.6377 27.5433C25.7814 27.0892 26.7588 26.3201 27.4466 25.3334C28.1343 24.3467 28.5014 23.1867 28.5014 22C28.5014 20.4087 27.842 18.8826 26.6682 17.7574C25.4945 16.6321 23.9025 16 22.2426 16Z" fill="#FFCD34"/>
<path d="M23.9012 25L21.1995 22.41V18H23.2857V21.59L25.372 23.59L23.9012 25Z" fill="#FFCD34"/>
<path d="M29.5444 6C29.5444 5.46957 29.3246 4.96086 28.9334 4.58579C28.5421 4.21071 28.0115 4 27.4582 4H23.2857V2H21.1994V4H12.8544V2H10.7682V4H6.59565C6.04234 4 5.5117 4.21071 5.12045 4.58579C4.7292 4.96086 4.5094 5.46957 4.5094 6V26C4.5094 26.5304 4.7292 27.0391 5.12045 27.4142C5.5117 27.7893 6.04234 28 6.59565 28H10.7682V26H6.59565V6H10.7682V8H12.8544V6H21.1994V8H23.2857V6H27.4582V12H29.5444V6Z" fill="#FFCD34"/>
</svg>
