<svg width="35" height="36" viewBox="0 0 35 36" fill="none" xmlns="http://www.w3.org/2000/svg">
<path d="M23.5498 20.8711C24.5752 19.2578 25.1768 17.3438 25.1768 15.2861C25.1768 9.53711 20.5215 4.875 14.7793 4.875C9.03027 4.875 4.375 9.53711 4.375 15.2861C4.375 21.0352 9.03027 25.6973 14.7725 25.6973C16.8574 25.6973 18.7988 25.082 20.4258 24.0293L20.8975 23.7012L28.3213 31.125L30.625 28.7803L23.208 21.3564L23.5498 20.8711ZM20.6035 9.46875C22.1553 11.0205 23.0098 13.085 23.0098 15.2793C23.0098 17.4736 22.1553 19.5381 20.6035 21.0898C19.0518 22.6416 16.9873 23.4961 14.793 23.4961C12.5986 23.4961 10.5342 22.6416 8.98242 21.0898C7.43066 19.5381 6.57617 17.4736 6.57617 15.2793C6.57617 13.085 7.43066 11.0205 8.98242 9.46875C10.5342 7.91699 12.5986 7.0625 14.793 7.0625C16.9873 7.0625 19.0518 7.91699 20.6035 9.46875Z" fill="#FFCD34"/>
</svg>
