<svg width="34" height="32" viewBox="0 0 34 32" fill="none" xmlns="http://www.w3.org/2000/svg">
<path d="M2.37994 17.0599V17.7265V29.5052H9.34683V27.8463L9.37115 27.8542C11.1887 28.4367 13.7807 28.9484 16.3488 29.8334L16.5407 29.8985L16.738 29.8542C17.5457 29.6732 19.7119 29.0241 22.305 28.2214C24.8982 27.4186 27.8615 26.4739 30.061 25.7422C31.1156 25.3908 31.6781 24.2539 31.2906 23.2448V23.2422V23.2395C30.8834 22.2072 29.7076 21.7519 28.7017 22.0494L21.9186 24.0468C21.9125 23.3665 21.5594 22.6962 20.9862 22.2629L20.9511 22.2369L20.9133 22.2161C18.0162 20.5529 17.7655 20.3465 13.6924 18.2603L13.5059 18.164L13.2951 18.1848C11.8983 18.3288 9.53344 18.7045 9.34684 18.7343V17.0598L2.37994 17.0599ZM3.76359 18.3932H7.96318V28.1718H3.76359V18.3932ZM13.2302 19.539C16.9556 21.4509 17.38 21.7401 20.135 23.3229C20.5696 23.6575 20.6842 24.0668 20.4187 24.4349C20.2747 24.6348 20.1331 24.7134 19.9242 24.7474C19.7173 24.781 19.4268 24.7455 19.0999 24.6067C17.8537 24.0521 17.1784 23.6951 15.8057 22.9531L15.203 22.6276L14.5274 23.789L15.13 24.1172C16.5073 24.8616 17.2403 25.2474 18.5216 25.8177L18.5244 25.8203H18.5298C19.0536 26.0455 19.6099 26.1484 20.1539 26.0599C20.4584 26.0104 20.7496 25.8872 21.0106 25.711L29.1071 23.3229C29.4288 23.2278 29.8578 23.3827 29.9908 23.7084C30.1164 24.0415 29.9631 24.364 29.6098 24.4818C27.4252 25.2085 24.4678 26.1531 21.8835 26.9532C19.3723 27.7305 17.2569 28.3498 16.5786 28.5105C13.9869 27.6416 11.4175 27.1049 9.80629 26.5886L9.34688 26.4401V20.0886L9.46038 20.0703C9.46038 20.0703 11.8312 19.6972 13.2302 19.539Z" fill="#FFCD34"/>
<path d="M22.5969 2.10153C17.6625 2.10153 13.6464 5.96906 13.6464 10.7239C13.6464 15.4788 17.6625 19.3489 22.5969 19.3489C27.5313 19.3489 31.5447 15.4788 31.5447 10.7239C31.5447 5.96906 27.5313 2.10153 22.5969 2.10153ZM22.5969 3.43487C22.8713 3.43487 23.161 3.55216 23.4968 3.86976C23.8326 4.18736 24.1811 4.69857 24.4778 5.36195C24.8022 6.08735 25.0586 6.99845 25.2318 8.01299H19.962C20.1352 6.99845 20.3916 6.08735 20.716 5.36195C21.0127 4.69857 21.3612 4.18736 21.697 3.86976C22.0328 3.55216 22.3225 3.43487 22.5969 3.43487ZM19.9512 3.89841C19.7699 4.18729 19.5978 4.49347 19.4459 4.8333C19.0421 5.73604 18.7503 6.82437 18.5649 8.01299H15.576C16.3648 6.11243 17.9555 4.61424 19.9512 3.89841ZM25.2426 3.89841C27.2378 4.61426 28.8295 6.11235 29.6178 8.01299H26.6289C26.4435 6.82437 26.1517 5.73604 25.7479 4.8333C25.596 4.49347 25.4239 4.18729 25.2426 3.89841ZM15.1679 9.34632H15.2598H18.4054C18.3716 9.79698 18.346 10.2524 18.346 10.7239C18.346 11.1955 18.3716 11.6509 18.4054 12.1015H15.2598H15.1679C15.0796 11.6552 15.0301 11.1955 15.0301 10.7239C15.0301 10.2524 15.0796 9.79264 15.1679 9.34632ZM19.7918 9.34632H25.402C25.439 9.79447 25.4642 10.2512 25.4642 10.7239C25.4642 11.1966 25.439 11.6534 25.402 12.1015H19.7918C19.7548 11.6534 19.7296 11.1966 19.7296 10.7239C19.7296 10.2512 19.7548 9.79447 19.7918 9.34632ZM26.7884 9.34632H29.934H30.0232C30.1114 9.79264 30.161 10.2524 30.161 10.7239C30.161 11.1955 30.1114 11.6552 30.0232 12.1015H29.934H26.7884C26.8222 11.6509 26.8478 11.1955 26.8478 10.7239C26.8478 10.2524 26.8222 9.79698 26.7884 9.34632ZM15.576 13.4349H18.5649C18.7503 14.6235 19.0421 15.7118 19.4459 16.6146C19.5978 16.9544 19.7699 17.2606 19.9512 17.5494C17.9557 16.8331 16.3648 15.3358 15.576 13.4349ZM19.962 13.4349H25.2318C25.0586 14.4494 24.8022 15.3605 24.4778 16.0859C24.1811 16.7493 23.8326 17.2631 23.4968 17.5807C23.161 17.8983 22.8713 18.0156 22.5969 18.0156C22.3225 18.0156 22.0328 17.8983 21.697 17.5807C21.3612 17.2631 21.0127 16.7493 20.716 16.0859C20.3916 15.3605 20.1352 14.4494 19.962 13.4349ZM26.6289 13.4349H29.6178C28.8296 15.3359 27.2376 16.8331 25.2426 17.5494C25.4239 17.2606 25.596 16.9544 25.7479 16.6146C26.1517 15.7118 26.4435 14.6235 26.6289 13.4349Z" fill="#FFCD34"/>
</svg>
