<svg width="40" height="40" viewBox="0 0 40 40" fill="none" xmlns="http://www.w3.org/2000/svg">
<path d="M11.25 34H9.6875L10.625 32.6875C11.3125 31.6875 11.8125 30.5 12.0625 28.9375C7.625 26.9375 5.25 23.1875 5.25 18.25C5.25 10.6875 10.9375 6 20.125 6C29.3125 6 35 10.6875 35 18.25C35 25.875 29.4375 30.5 20.125 30.5C19.9375 30.5 19.6875 30.5 19.5 30.5C18 32.125 15.5 34 11.25 34ZM20 7.625C11.6875 7.625 6.75 11.5625 6.75 18.25C6.75 23.9375 10.25 26.5 13.125 27.6875L13.6875 27.9375L13.625 28.5625C13.4375 30 13.125 31.25 12.625 32.3125C15.625 31.9375 17.375 30.4375 18.3125 29.1875L18.5625 28.875H19.125C19.375 28.875 19.6875 28.875 19.9375 28.875C31.875 28.875 33.1875 21.4375 33.1875 18.25C33.25 11.625 28.3125 7.625 20 7.625Z" fill="#FFCD34"/>
</svg>
