<svg width="40" height="41" viewBox="0 0 40 41" fill="none" xmlns="http://www.w3.org/2000/svg">
<path d="M20 20.5C23.6819 20.5 26.6667 17.5152 26.6667 13.8333C26.6667 10.1514 23.6819 7.16667 20 7.16667C16.3181 7.16667 13.3333 10.1514 13.3333 13.8333C13.3333 17.5152 16.3181 20.5 20 20.5Z" fill="#FFCD34"/>
<path d="M33.3333 32.1667V33.8333C33.3333 34.2754 33.1577 34.6993 32.8452 35.0119C32.5326 35.3244 32.1087 35.5 31.6667 35.5H8.33332C7.8913 35.5 7.46737 35.3244 7.15481 35.0119C6.84225 34.6993 6.66666 34.2754 6.66666 33.8333V32.1667C6.66666 29.5145 7.72023 26.971 9.59559 25.0956C11.471 23.2202 14.0145 22.1667 16.6667 22.1667H23.3333C25.9855 22.1667 28.529 23.2202 30.4044 25.0956C32.2798 26.971 33.3333 29.5145 33.3333 32.1667Z" fill="#FFCD34"/>
</svg>
