<svg width="24" height="24" viewBox="0 0 24 24" fill="none" xmlns="http://www.w3.org/2000/svg">
<path d="M15.3537 22.0799H9.3648C3.69918 22.0799 2.23305 20.6205 2.23305 14.9807V9.01912C2.23305 3.37936 3.69918 1.91992 9.3648 1.91992H15.353C21.0193 1.91992 22.4855 3.37936 22.4855 9.01912V14.9807C22.4855 20.6205 21.0193 22.0799 15.3537 22.0799ZM9.3648 2.63992C4.0941 2.63992 2.95635 3.77248 2.95635 9.01912V14.9807C2.95635 20.2274 4.0941 21.3599 9.3648 21.3599H15.353C20.6237 21.3599 21.7615 20.2274 21.7615 14.9807V9.01912C21.7622 3.77248 20.6244 2.63992 15.3537 2.63992H9.3648Z" fill="white"/>
<path d="M19.0274 16.9506H17.4448C16.8589 16.9506 16.5653 16.6244 16.077 16.0844C15.8846 15.872 15.6488 15.6107 15.3356 15.2982C14.472 14.4695 14.106 14.386 13.9715 14.386C13.9664 14.4212 13.9621 14.4774 13.9621 14.5652V15.9779C13.9621 16.785 13.3661 16.9506 12.4699 16.9506C10.5922 16.9506 8.67693 15.8152 7.34606 13.9136C5.42931 11.2388 4.7834 9.06444 4.7834 8.4834C4.7834 7.97148 5.11323 7.67772 5.68753 7.67772H7.27011C7.96448 7.67772 8.17641 8.11908 8.32034 8.53236C9.0328 10.5995 10.083 12.1396 10.5199 12.447C10.5235 12.4002 10.5264 12.3383 10.5264 12.2548V9.93492C10.4968 9.41004 10.3217 9.19404 10.1669 9.00396C10.0404 8.84844 9.89714 8.67204 9.89714 8.39988C9.89714 8.05284 10.1894 7.67772 10.6617 7.67772H13.1484C13.5202 7.67772 13.9621 7.84044 13.9621 8.6166V11.7378C13.9621 11.7522 13.9628 11.7652 13.9635 11.7774C14.0453 11.7212 14.1617 11.6154 14.3288 11.4498C15.3986 10.2582 16.187 8.36532 16.1949 8.34588C16.3837 7.90668 16.7367 7.677 17.2184 7.677H18.801C19.1431 7.677 19.3926 7.77924 19.5424 7.9794C19.6422 8.1126 19.7376 8.34948 19.6263 8.71956C19.4223 9.65484 17.6466 12.1633 17.4441 12.4463C17.4289 12.4715 17.3674 12.5708 17.3594 12.6047C17.3616 12.6047 17.3746 12.64 17.4347 12.7177C17.5077 12.8178 17.6878 12.9935 17.8621 13.1641C18.0777 13.3744 18.3214 13.6127 18.5153 13.8409C19.3688 14.7964 19.776 15.3688 19.9185 15.8094C20.0371 16.2169 19.9322 16.4732 19.8223 16.618C19.7102 16.7706 19.4802 16.9506 19.0274 16.9506ZM14.0149 13.6652C14.3418 13.6652 14.8149 13.7984 15.842 14.7841C16.1718 15.1124 16.4163 15.3824 16.6152 15.6028C17.0882 16.1276 17.2032 16.2306 17.4441 16.2306H19.0266C19.1764 16.2306 19.2371 16.1968 19.2451 16.1874C19.2451 16.1874 19.2632 16.1435 19.2277 16.0218C19.0946 15.61 18.4856 14.8921 17.9699 14.314C17.784 14.0951 17.5576 13.8748 17.3565 13.6796C17.133 13.4622 16.9573 13.2901 16.8567 13.1504C16.4965 12.6889 16.6376 12.3786 16.8437 12.0488C17.3797 11.2957 18.7742 9.23436 18.9268 8.541C18.9478 8.46756 18.9529 8.42724 18.9529 8.4078C18.9398 8.40924 18.8914 8.39844 18.801 8.39844H17.2184C17.0021 8.39844 16.924 8.48196 16.8625 8.62524C16.8307 8.70228 16.0221 10.6456 14.8546 11.9452C14.4829 12.316 14.2203 12.5492 13.8471 12.5492C13.5541 12.5492 13.2388 12.2951 13.2388 11.7385V8.61732C13.2388 8.47908 13.2222 8.42076 13.2142 8.4006C13.2062 8.40348 13.1867 8.39916 13.1484 8.39844H10.6617C10.6262 8.4258 10.6884 8.50212 10.7297 8.55252C10.9199 8.78652 11.2063 9.14004 11.2497 9.9162L11.2504 12.2562C11.2504 12.5435 11.2504 13.2174 10.5951 13.2174C9.66713 13.2174 8.28129 10.6333 7.63755 8.76852C7.5088 8.39916 7.44877 8.39916 7.27083 8.39916H5.68825C5.54648 8.39916 5.50453 8.42652 5.50453 8.42652C5.50743 8.73684 5.95587 10.7334 7.93772 13.4996C9.1355 15.2111 10.8288 16.2313 12.4706 16.2313C13.2395 16.2313 13.2395 16.1255 13.2395 15.9786V14.566C13.2395 14.1203 13.3314 13.6652 14.0149 13.6652Z" fill="white"/>
</svg>
