<svg width="25" height="24" viewBox="0 0 25 24" fill="none" xmlns="http://www.w3.org/2000/svg">
<path d="M12.0661 19.5816C10.1405 19.5866 8.21604 19.4869 6.30137 19.2828C5.2344 19.1625 4.24099 18.6821 3.48632 17.9218C2.73166 17.1614 2.26122 16.1667 2.15323 15.1032C1.95064 13.0338 1.96519 10.9489 2.19663 8.88245C2.32675 7.81862 2.8178 6.83089 3.58855 6.08264C4.35929 5.3344 5.36355 4.87049 6.43518 4.76765C10.4745 4.34503 14.5473 4.34503 18.5866 4.76765C19.678 4.87094 20.6994 5.34864 21.4759 6.11899C22.2524 6.88934 22.7358 7.90441 22.8433 8.99045C23.0446 11.02 23.0361 13.0647 22.8179 15.0924C22.7222 16.1654 22.2532 17.1715 21.492 17.9372C20.7308 18.7028 19.725 19.18 18.6481 19.2865C16.2685 19.4845 14.0949 19.5816 12.0661 19.5816ZM12.5326 5.18165C10.5215 5.18214 8.51179 5.28427 6.51112 5.48765C5.60405 5.57259 4.7533 5.96324 4.0996 6.59497C3.44591 7.22669 3.02846 8.06163 2.91632 8.96165C2.68982 10.979 2.67527 13.0145 2.87292 15.0349C2.96435 15.9336 3.36175 16.7743 3.99917 17.4173C4.63659 18.0603 5.47571 18.4671 6.37731 18.57C10.4412 18.9613 14.5336 18.9613 18.5975 18.57C19.5044 18.4746 20.3495 18.0677 20.9877 17.4193C21.6259 16.7708 22.0173 15.9214 22.0946 15.0169C22.3077 13.0381 22.3162 11.0429 22.12 9.06245C22.0252 8.14299 21.6129 7.28475 20.9533 6.63414C20.2938 5.98353 19.4279 5.58087 18.5035 5.49485C16.5207 5.27619 14.5275 5.16443 12.5326 5.16005V5.18165Z" fill="white"/>
<path d="M10.3302 15.42C10.2342 15.42 10.1423 15.382 10.0744 15.3145C10.0066 15.247 9.96851 15.1554 9.96851 15.06V8.93997C9.96861 8.87539 9.98617 8.81204 10.0193 8.75654C10.0525 8.70104 10.1 8.65544 10.157 8.62452C10.2139 8.5936 10.2782 8.5785 10.343 8.58079C10.4078 8.58309 10.4709 8.6027 10.5254 8.63757L15.5886 11.8776C15.6417 11.9097 15.6856 11.9548 15.7161 12.0088C15.7466 12.0627 15.7626 12.1235 15.7626 12.1854C15.7626 12.2472 15.7466 12.3081 15.7161 12.362C15.6856 12.4159 15.6417 12.4611 15.5886 12.4932L10.5254 15.3732C10.4661 15.4068 10.3984 15.423 10.3302 15.42ZM10.6918 9.59877V14.4408L14.6953 12.162L10.6918 9.59877Z" fill="white"/>
</svg>
